<?xml version="1.0" encoding="UTF-8"?>
<svg version="1.1" xmlns="http://www.w3.org/2000/svg" width="500" height="500">
<path d="M0 0 C165 0 330 0 500 0 C500 165 500 330 500 500 C335 500 170 500 0 500 C0 335 0 170 0 0 Z " fill="#FEFEFE" transform="translate(0,0)"/>
<path d="M0 0 C42.9 0 85.8 0 130 0 C130 76.24989635 130 76.24989635 114.26953125 92.7890625 C100.69682421 106.01135541 83.78438121 111.54917203 65.125 111.4375 C63.94808594 111.45748047 62.77117187 111.47746094 61.55859375 111.49804688 C44.69751489 111.48877235 28.31527398 104.94209488 16.06420898 93.32983398 C-8.7977589 68.40020297 0 32.94726501 0 0 Z " fill="#5F19EB" transform="translate(185,194)"/>
<path d="M0 0 C2 2 2 2 2.05690002 3.83818054 C1.32315738 9.44123225 0.18195847 14.81479767 -1.28515625 20.26953125 C-1.6159745 21.53466805 -1.6159745 21.53466805 -1.95347595 22.82536316 C-2.65052407 25.4893523 -3.35567247 28.15109029 -4.0625 30.8125 C-4.77236608 33.49188938 -5.48029505 36.171718 -6.18223572 38.85319519 C-6.61706781 40.51388106 -7.0564611 42.17338111 -7.50099182 43.83149719 C-8.42733046 47.36538472 -9 50.32209567 -9 54 C1.89 46.74 12.78 39.48 24 32 C22.74646003 28.86615008 21.53924548 25.96854486 20 23 C26.49850211 23.51553879 32.66226532 24.46667709 39 26 C38.27637073 32.39205856 37.19656638 38.68027076 36 45 C35.34 45 34.68 45 34 45 C30 39.58823529 30 39.58823529 30 37 C25.82254922 39.82502476 21.64574458 42.65100159 17.46948242 45.4777832 C16.05493704 46.43506298 14.64022912 47.39210264 13.2253418 48.34887695 C11.85092324 49.27832933 10.47680763 50.20822986 9.10299683 51.13858032 C7.73424655 52.06483308 6.36439092 52.98945452 4.99343872 53.91244507 C1.71890968 56.12366058 -1.52289082 58.36316498 -4.70947266 60.69970703 C-5.2909053 61.12055069 -5.87233795 61.54139435 -6.47138977 61.97499084 C-8.03653931 63.11289343 -9.59061084 64.26598993 -11.14379883 65.42016602 C-14.3989446 67.22066591 -16.3357343 67.40839394 -20 67 C-21 66 -21 66 -21.21069336 62.07373047 C-21.14604092 56.75122667 -20.0030231 51.93957591 -18.62890625 46.8203125 C-18.38712143 45.88573212 -18.14533661 44.95115173 -17.89622498 43.98825073 C-17.12848407 41.03107116 -16.34564463 38.078133 -15.5625 35.125 C-15.04003903 33.1200459 -14.51854536 31.11483947 -13.99804688 29.109375 C-13.04556075 25.45305295 -12.09022083 21.79755097 -11.12329102 18.14501953 C-10.93009781 17.41493683 -10.7369046 16.68485413 -10.53785706 15.93264771 C-10.07609595 14.27343076 -9.54463053 12.6338916 -9 11 C-12.81393861 13.37269554 -16.62588153 15.74857938 -20.4375 18.125 C-21.50677734 18.79015625 -22.57605469 19.4553125 -23.67773438 20.140625 C-29.85495874 23.99430626 -35.97408717 27.91336176 -42 32 C-40.68 34.64 -39.36 37.28 -38 40 C-42.1452827 39.45931095 -46.26219801 38.81296818 -50.375 38.0625 C-51.65503906 37.83240234 -51.65503906 37.83240234 -52.9609375 37.59765625 C-53.63382813 37.40042969 -54.30671875 37.20320313 -55 37 C-56.66285211 33.67429578 -54.98079852 30.31639055 -54.0625 26.875 C-53.86720703 26.12089844 -53.67191406 25.36679688 -53.47070312 24.58984375 C-52.98676642 22.72491694 -52.49419231 20.86223541 -52 19 C-48.125 22.75 -48.125 22.75 -47 25 C-41.94600768 23.2917506 -37.70760847 20.4246638 -33.25 17.5625 C-32.00440308 16.77311035 -32.00440308 16.77311035 -30.73364258 15.96777344 C-26.51327038 13.28524866 -22.32719312 10.56144806 -18.18359375 7.76171875 C-17.04712402 7.00169556 -17.04712402 7.00169556 -15.88769531 6.22631836 C-14.45320026 5.26378045 -13.02629133 4.28980932 -11.60839844 3.30297852 C-7.64410795 0.65177335 -4.94094437 -0.78821565 0 0 Z " fill="#F9F7FE" transform="translate(260,210)"/>
<path d="M0 0 C1.32 0 2.64 0 4 0 C3.67 1.65 3.34 3.3 3 5 C1.68 5 0.36 5 -1 5 C-0.67 3.35 -0.34 1.7 0 0 Z " fill="#EB3F44" transform="translate(488,42)"/>
</svg>
